<mxfile host="app.diagrams.net" agent="Mozilla/5.0 (Windows NT 10.0; Win64; x64) AppleWebKit/537.36 (KHTML, like Gecko) Chrome/134.0.0.0 Safari/537.36 Edg/134.0.0.0" version="26.2.9">
  <diagram id="C5RBs43oDa-KdzZeNtuy" name="Page-1">
    <mxGraphModel dx="1428" dy="877" grid="0" gridSize="10" guides="1" tooltips="1" connect="1" arrows="1" fold="1" page="1" pageScale="1" pageWidth="827" pageHeight="1169" math="0" shadow="0">
      <root>
        <mxCell id="WIyWlLk6GJQsqaUBKTNV-0" />
        <mxCell id="WIyWlLk6GJQsqaUBKTNV-1" parent="WIyWlLk6GJQsqaUBKTNV-0" />
        <mxCell id="ul0n_eh6_xzhWPqqEAVD-3" style="edgeStyle=orthogonalEdgeStyle;rounded=0;orthogonalLoop=1;jettySize=auto;html=1;" parent="WIyWlLk6GJQsqaUBKTNV-1" target="ul0n_eh6_xzhWPqqEAVD-4" edge="1">
          <mxGeometry relative="1" as="geometry">
            <mxPoint x="230" y="240" as="targetPoint" />
            <mxPoint x="230" y="120" as="sourcePoint" />
          </mxGeometry>
        </mxCell>
        <mxCell id="MqeZe2jEh2oXcdcuC_fv-15" value="" style="edgeStyle=orthogonalEdgeStyle;rounded=0;orthogonalLoop=1;jettySize=auto;html=1;" edge="1" parent="WIyWlLk6GJQsqaUBKTNV-1" source="ul0n_eh6_xzhWPqqEAVD-4" target="MqeZe2jEh2oXcdcuC_fv-11">
          <mxGeometry relative="1" as="geometry" />
        </mxCell>
        <mxCell id="ul0n_eh6_xzhWPqqEAVD-4" value="Sales กรอก Forecast" style="rounded=0;whiteSpace=wrap;html=1;" parent="WIyWlLk6GJQsqaUBKTNV-1" vertex="1">
          <mxGeometry x="170" y="160" width="120" height="60" as="geometry" />
        </mxCell>
        <mxCell id="ul0n_eh6_xzhWPqqEAVD-14" value="" style="edgeStyle=orthogonalEdgeStyle;rounded=0;orthogonalLoop=1;jettySize=auto;html=1;strokeColor=light-dark(#000000,#000000);" parent="WIyWlLk6GJQsqaUBKTNV-1" source="ul0n_eh6_xzhWPqqEAVD-11" target="ul0n_eh6_xzhWPqqEAVD-13" edge="1">
          <mxGeometry relative="1" as="geometry" />
        </mxCell>
        <mxCell id="ul0n_eh6_xzhWPqqEAVD-11" value="DA จัดทำ Final Master Forecast&lt;span style=&quot;color: rgba(0, 0, 0, 0); font-family: monospace; font-size: 0px; text-align: start; text-wrap-mode: nowrap;&quot;&gt;%3CmxGraphModel%3E%3Croot%3E%3CmxCell%20id%3D%220%22%2F%3E%3CmxCell%20id%3D%221%22%20parent%3D%220%22%2F%3E%3CmxCell%20id%3D%222%22%20value%3D%22Marketing%20Manager%20%E0%B8%95%E0%B8%A3%E0%B8%A7%E0%B8%88%E0%B9%80%E0%B8%8A%E0%B9%87%E0%B8%84%22%20style%3D%22rounded%3D0%3BwhiteSpace%3Dwrap%3Bhtml%3D1%3B%22%20vertex%3D%221%22%20parent%3D%221%22%3E%3CmxGeometry%20x%3D%22147.5%22%20y%3D%22370%22%20width%3D%22165%22%20height%3D%2260%22%20as%3D%22geometry%22%2F%3E%3C%2FmxCell%3E%3C%2Froot%3E%3C%2FmxGraphModel%3E&lt;/span&gt;" style="rounded=0;whiteSpace=wrap;html=1;" parent="WIyWlLk6GJQsqaUBKTNV-1" vertex="1">
          <mxGeometry x="147.5" y="470" width="165" height="60" as="geometry" />
        </mxCell>
        <mxCell id="ul0n_eh6_xzhWPqqEAVD-20" value="" style="edgeStyle=orthogonalEdgeStyle;rounded=0;orthogonalLoop=1;jettySize=auto;html=1;" parent="WIyWlLk6GJQsqaUBKTNV-1" source="ul0n_eh6_xzhWPqqEAVD-13" target="ul0n_eh6_xzhWPqqEAVD-15" edge="1">
          <mxGeometry relative="1" as="geometry" />
        </mxCell>
        <mxCell id="ul0n_eh6_xzhWPqqEAVD-13" value="Sales Co เปิด PO forecast" style="rounded=0;whiteSpace=wrap;html=1;" parent="WIyWlLk6GJQsqaUBKTNV-1" vertex="1">
          <mxGeometry x="147.5" y="570" width="165" height="60" as="geometry" />
        </mxCell>
        <mxCell id="PnefCcI8xvtNNN-fNU-R-4" value="" style="edgeStyle=orthogonalEdgeStyle;rounded=0;orthogonalLoop=1;jettySize=auto;html=1;" parent="WIyWlLk6GJQsqaUBKTNV-1" source="ul0n_eh6_xzhWPqqEAVD-15" target="PnefCcI8xvtNNN-fNU-R-0" edge="1">
          <mxGeometry relative="1" as="geometry" />
        </mxCell>
        <mxCell id="PnefCcI8xvtNNN-fNU-R-22" style="edgeStyle=orthogonalEdgeStyle;rounded=0;orthogonalLoop=1;jettySize=auto;html=1;entryX=0.5;entryY=0;entryDx=0;entryDy=0;strokeColor=light-dark(#000000,#000000);" parent="WIyWlLk6GJQsqaUBKTNV-1" source="ul0n_eh6_xzhWPqqEAVD-15" target="PnefCcI8xvtNNN-fNU-R-11" edge="1">
          <mxGeometry relative="1" as="geometry" />
        </mxCell>
        <mxCell id="ul0n_eh6_xzhWPqqEAVD-15" value="เปิดก่อนฤดูกาลของ 1 เดือน" style="rhombus;whiteSpace=wrap;html=1;" parent="WIyWlLk6GJQsqaUBKTNV-1" vertex="1">
          <mxGeometry x="135" y="670" width="190" height="90" as="geometry" />
        </mxCell>
        <mxCell id="ul0n_eh6_xzhWPqqEAVD-19" value="" style="edgeStyle=orthogonalEdgeStyle;rounded=0;orthogonalLoop=1;jettySize=auto;html=1;strokeColor=light-dark(#000000,#000000);" parent="WIyWlLk6GJQsqaUBKTNV-1" source="ul0n_eh6_xzhWPqqEAVD-16" target="ul0n_eh6_xzhWPqqEAVD-4" edge="1">
          <mxGeometry relative="1" as="geometry" />
        </mxCell>
        <mxCell id="ul0n_eh6_xzhWPqqEAVD-16" value="การเปิด PO forecast" style="ellipse;whiteSpace=wrap;html=1;" parent="WIyWlLk6GJQsqaUBKTNV-1" vertex="1">
          <mxGeometry x="170" y="40" width="120" height="80" as="geometry" />
        </mxCell>
        <mxCell id="ul0n_eh6_xzhWPqqEAVD-23" value="จบการเปิด PO-Forecast" style="ellipse;whiteSpace=wrap;html=1;aspect=fixed;" parent="WIyWlLk6GJQsqaUBKTNV-1" vertex="1">
          <mxGeometry x="196.5" y="1528" width="67" height="67" as="geometry" />
        </mxCell>
        <mxCell id="PnefCcI8xvtNNN-fNU-R-5" value="" style="edgeStyle=orthogonalEdgeStyle;rounded=0;orthogonalLoop=1;jettySize=auto;html=1;" parent="WIyWlLk6GJQsqaUBKTNV-1" source="PnefCcI8xvtNNN-fNU-R-0" target="PnefCcI8xvtNNN-fNU-R-1" edge="1">
          <mxGeometry relative="1" as="geometry" />
        </mxCell>
        <mxCell id="PnefCcI8xvtNNN-fNU-R-23" style="edgeStyle=orthogonalEdgeStyle;rounded=0;orthogonalLoop=1;jettySize=auto;html=1;entryX=0.5;entryY=0;entryDx=0;entryDy=0;strokeColor=light-dark(#000000,#000000);" parent="WIyWlLk6GJQsqaUBKTNV-1" source="PnefCcI8xvtNNN-fNU-R-0" target="PnefCcI8xvtNNN-fNU-R-11" edge="1">
          <mxGeometry relative="1" as="geometry" />
        </mxCell>
        <mxCell id="PnefCcI8xvtNNN-fNU-R-0" value="จัดซื้อยืนยันว่าหา RM ได้&lt;span style=&quot;color: rgba(0, 0, 0, 0); font-family: monospace; font-size: 0px; text-align: start; text-wrap-mode: nowrap;&quot;&gt;%3CmxGraphModel%3E%3Croot%3E%3CmxCell%20id%3D%220%22%2F%3E%3CmxCell%20id%3D%221%22%20parent%3D%220%22%2F%3E%3CmxCell%20id%3D%222%22%20value%3D%22%E0%B9%80%E0%B8%9B%E0%B8%B4%E0%B8%94%E0%B8%81%E0%B9%88%E0%B8%AD%E0%B8%99%E0%B8%A4%E0%B8%94%E0%B8%B9%E0%B8%81%E0%B8%B2%E0%B8%A5%E0%B8%82%E0%B8%AD%E0%B8%87%201%20%E0%B9%80%E0%B8%94%E0%B8%B7%E0%B8%AD%E0%B8%99%22%20style%3D%22rhombus%3BwhiteSpace%3Dwrap%3Bhtml%3D1%3B%22%20vertex%3D%221%22%20parent%3D%221%22%3E%3CmxGeometry%20x%3D%22135%22%20y%3D%22670%22%20width%3D%22190%22%20height%3D%2290%22%20as%3D%22geometry%22%2F%3E%3C%2FmxCell%3E%3C%2Froot%3E%3C%2FmxGraphModel%3E&lt;/span&gt;&lt;span style=&quot;color: rgba(0, 0, 0, 0); font-family: monospace; font-size: 0px; text-align: start; text-wrap-mode: nowrap;&quot;&gt;%3CmxGraphModel%3E%3Croot%3E%3CmxCell%20id%3D%220%22%2F%3E%3CmxCell%20id%3D%221%22%20parent%3D%220%22%2F%3E%3CmxCell%20id%3D%222%22%20value%3D%22%E0%B9%80%E0%B8%9B%E0%B8%B4%E0%B8%94%E0%B8%81%E0%B9%88%E0%B8%AD%E0%B8%99%E0%B8%A4%E0%B8%94%E0%B8%B9%E0%B8%81%E0%B8%B2%E0%B8%A5%E0%B8%82%E0%B8%AD%E0%B8%87%201%20%E0%B9%80%E0%B8%94%E0%B8%B7%E0%B8%AD%E0%B8%99%22%20style%3D%22rhombus%3BwhiteSpace%3Dwrap%3Bhtml%3D1%3B%22%20vertex%3D%221%22%20parent%3D%221%22%3E%3CmxGeometry%20x%3D%22135%22%20y%3D%22670%22%20width%3D%22190%22%20height%3D%2290%22%20as%3D%22geometry%22%2F%3E%3C%2FmxCell%3E%3C%2Froot%3E%3C%2FmxGraphModel%3E&lt;/span&gt;" style="rhombus;whiteSpace=wrap;html=1;" parent="WIyWlLk6GJQsqaUBKTNV-1" vertex="1">
          <mxGeometry x="135" y="790" width="190" height="90" as="geometry" />
        </mxCell>
        <mxCell id="PnefCcI8xvtNNN-fNU-R-6" value="" style="edgeStyle=orthogonalEdgeStyle;rounded=0;orthogonalLoop=1;jettySize=auto;html=1;" parent="WIyWlLk6GJQsqaUBKTNV-1" source="PnefCcI8xvtNNN-fNU-R-1" target="PnefCcI8xvtNNN-fNU-R-3" edge="1">
          <mxGeometry relative="1" as="geometry" />
        </mxCell>
        <mxCell id="PnefCcI8xvtNNN-fNU-R-24" style="edgeStyle=orthogonalEdgeStyle;rounded=0;orthogonalLoop=1;jettySize=auto;html=1;entryX=0.5;entryY=0;entryDx=0;entryDy=0;strokeColor=light-dark(#000000,#000000);" parent="WIyWlLk6GJQsqaUBKTNV-1" source="PnefCcI8xvtNNN-fNU-R-1" target="PnefCcI8xvtNNN-fNU-R-11" edge="1">
          <mxGeometry relative="1" as="geometry">
            <mxPoint x="610" y="1430" as="targetPoint" />
          </mxGeometry>
        </mxCell>
        <mxCell id="PnefCcI8xvtNNN-fNU-R-1" value="RD มี Spec RM FG PKG และ WI พร้อมแล้ว&amp;nbsp;" style="rhombus;whiteSpace=wrap;html=1;" parent="WIyWlLk6GJQsqaUBKTNV-1" vertex="1">
          <mxGeometry x="87.5" y="900" width="285" height="120" as="geometry" />
        </mxCell>
        <mxCell id="PnefCcI8xvtNNN-fNU-R-16" value="" style="edgeStyle=orthogonalEdgeStyle;rounded=0;orthogonalLoop=1;jettySize=auto;html=1;" parent="WIyWlLk6GJQsqaUBKTNV-1" source="PnefCcI8xvtNNN-fNU-R-3" target="PnefCcI8xvtNNN-fNU-R-12" edge="1">
          <mxGeometry relative="1" as="geometry" />
        </mxCell>
        <mxCell id="PnefCcI8xvtNNN-fNU-R-25" style="edgeStyle=orthogonalEdgeStyle;rounded=0;orthogonalLoop=1;jettySize=auto;html=1;entryX=0.5;entryY=0;entryDx=0;entryDy=0;strokeColor=light-dark(#000000,#000000);" parent="WIyWlLk6GJQsqaUBKTNV-1" source="PnefCcI8xvtNNN-fNU-R-3" target="PnefCcI8xvtNNN-fNU-R-11" edge="1">
          <mxGeometry relative="1" as="geometry">
            <mxPoint x="610" y="1420" as="targetPoint" />
          </mxGeometry>
        </mxCell>
        <mxCell id="PnefCcI8xvtNNN-fNU-R-3" value="PD ยืนยันคิวผลิต" style="rhombus;whiteSpace=wrap;html=1;" parent="WIyWlLk6GJQsqaUBKTNV-1" vertex="1">
          <mxGeometry x="135" y="1050" width="190" height="90" as="geometry" />
        </mxCell>
        <mxCell id="PnefCcI8xvtNNN-fNU-R-21" style="edgeStyle=orthogonalEdgeStyle;rounded=0;orthogonalLoop=1;jettySize=auto;html=1;entryX=1;entryY=0.5;entryDx=0;entryDy=0;" parent="WIyWlLk6GJQsqaUBKTNV-1" source="PnefCcI8xvtNNN-fNU-R-11" target="ul0n_eh6_xzhWPqqEAVD-23" edge="1">
          <mxGeometry relative="1" as="geometry">
            <Array as="points">
              <mxPoint x="610" y="1562" />
            </Array>
          </mxGeometry>
        </mxCell>
        <mxCell id="PnefCcI8xvtNNN-fNU-R-11" value="ยกเลิกการเปิด PO-Forecast" style="rounded=0;whiteSpace=wrap;html=1;" parent="WIyWlLk6GJQsqaUBKTNV-1" vertex="1">
          <mxGeometry x="520" y="1430" width="180" height="60" as="geometry" />
        </mxCell>
        <mxCell id="PnefCcI8xvtNNN-fNU-R-17" value="" style="edgeStyle=orthogonalEdgeStyle;rounded=0;orthogonalLoop=1;jettySize=auto;html=1;" parent="WIyWlLk6GJQsqaUBKTNV-1" source="PnefCcI8xvtNNN-fNU-R-12" target="PnefCcI8xvtNNN-fNU-R-13" edge="1">
          <mxGeometry relative="1" as="geometry" />
        </mxCell>
        <mxCell id="PnefCcI8xvtNNN-fNU-R-26" style="edgeStyle=orthogonalEdgeStyle;rounded=0;orthogonalLoop=1;jettySize=auto;html=1;entryX=0.5;entryY=0;entryDx=0;entryDy=0;strokeColor=light-dark(#000000,#000000);" parent="WIyWlLk6GJQsqaUBKTNV-1" source="PnefCcI8xvtNNN-fNU-R-12" target="PnefCcI8xvtNNN-fNU-R-11" edge="1">
          <mxGeometry relative="1" as="geometry">
            <mxPoint x="610" y="1420" as="targetPoint" />
          </mxGeometry>
        </mxCell>
        <mxCell id="PnefCcI8xvtNNN-fNU-R-12" value="Sales ตรวจสอบและเซ็นต์รับรอง" style="rhombus;whiteSpace=wrap;html=1;" parent="WIyWlLk6GJQsqaUBKTNV-1" vertex="1">
          <mxGeometry x="130" y="1170" width="200" height="90" as="geometry" />
        </mxCell>
        <mxCell id="PnefCcI8xvtNNN-fNU-R-19" value="" style="edgeStyle=orthogonalEdgeStyle;rounded=0;orthogonalLoop=1;jettySize=auto;html=1;" parent="WIyWlLk6GJQsqaUBKTNV-1" source="PnefCcI8xvtNNN-fNU-R-13" target="PnefCcI8xvtNNN-fNU-R-15" edge="1">
          <mxGeometry relative="1" as="geometry" />
        </mxCell>
        <mxCell id="PnefCcI8xvtNNN-fNU-R-27" style="edgeStyle=orthogonalEdgeStyle;rounded=0;orthogonalLoop=1;jettySize=auto;html=1;entryX=0.5;entryY=0;entryDx=0;entryDy=0;strokeColor=light-dark(#000000,#000000);" parent="WIyWlLk6GJQsqaUBKTNV-1" source="PnefCcI8xvtNNN-fNU-R-13" target="PnefCcI8xvtNNN-fNU-R-11" edge="1">
          <mxGeometry relative="1" as="geometry">
            <mxPoint x="700" y="1340" as="targetPoint" />
            <Array as="points">
              <mxPoint x="610" y="1340" />
            </Array>
          </mxGeometry>
        </mxCell>
        <mxCell id="PnefCcI8xvtNNN-fNU-R-13" value="Sales Manager ตรวจสอบและเซ็นต์รับรอง" style="rhombus;whiteSpace=wrap;html=1;" parent="WIyWlLk6GJQsqaUBKTNV-1" vertex="1">
          <mxGeometry x="95" y="1290" width="270" height="100" as="geometry" />
        </mxCell>
        <mxCell id="PnefCcI8xvtNNN-fNU-R-20" value="" style="edgeStyle=orthogonalEdgeStyle;rounded=0;orthogonalLoop=1;jettySize=auto;html=1;" parent="WIyWlLk6GJQsqaUBKTNV-1" source="PnefCcI8xvtNNN-fNU-R-15" target="ul0n_eh6_xzhWPqqEAVD-23" edge="1">
          <mxGeometry relative="1" as="geometry" />
        </mxCell>
        <mxCell id="PnefCcI8xvtNNN-fNU-R-15" value="เปิด PO-Forecast ผ่าน" style="rounded=0;whiteSpace=wrap;html=1;" parent="WIyWlLk6GJQsqaUBKTNV-1" vertex="1">
          <mxGeometry x="140" y="1430" width="180" height="60" as="geometry" />
        </mxCell>
        <mxCell id="PnefCcI8xvtNNN-fNU-R-28" value="ใช่" style="text;html=1;align=center;verticalAlign=middle;whiteSpace=wrap;rounded=0;" parent="WIyWlLk6GJQsqaUBKTNV-1" vertex="1">
          <mxGeometry x="224" y="758" width="60" height="30" as="geometry" />
        </mxCell>
        <mxCell id="PnefCcI8xvtNNN-fNU-R-34" value="ไม่ใช่" style="text;html=1;align=center;verticalAlign=middle;whiteSpace=wrap;rounded=0;" parent="WIyWlLk6GJQsqaUBKTNV-1" vertex="1">
          <mxGeometry x="447" y="686" width="60" height="30" as="geometry" />
        </mxCell>
        <mxCell id="MqeZe2jEh2oXcdcuC_fv-1" value="ใช่" style="text;html=1;align=center;verticalAlign=middle;whiteSpace=wrap;rounded=0;" vertex="1" parent="WIyWlLk6GJQsqaUBKTNV-1">
          <mxGeometry x="224" y="873" width="60" height="30" as="geometry" />
        </mxCell>
        <mxCell id="MqeZe2jEh2oXcdcuC_fv-2" value="ใช่" style="text;html=1;align=center;verticalAlign=middle;whiteSpace=wrap;rounded=0;" vertex="1" parent="WIyWlLk6GJQsqaUBKTNV-1">
          <mxGeometry x="222" y="1025" width="60" height="30" as="geometry" />
        </mxCell>
        <mxCell id="MqeZe2jEh2oXcdcuC_fv-3" value="ใช่" style="text;html=1;align=center;verticalAlign=middle;whiteSpace=wrap;rounded=0;" vertex="1" parent="WIyWlLk6GJQsqaUBKTNV-1">
          <mxGeometry x="224" y="1146" width="60" height="30" as="geometry" />
        </mxCell>
        <mxCell id="MqeZe2jEh2oXcdcuC_fv-4" value="ใช่" style="text;html=1;align=center;verticalAlign=middle;whiteSpace=wrap;rounded=0;" vertex="1" parent="WIyWlLk6GJQsqaUBKTNV-1">
          <mxGeometry x="222" y="1265" width="60" height="30" as="geometry" />
        </mxCell>
        <mxCell id="MqeZe2jEh2oXcdcuC_fv-5" value="ใช่" style="text;html=1;align=center;verticalAlign=middle;whiteSpace=wrap;rounded=0;" vertex="1" parent="WIyWlLk6GJQsqaUBKTNV-1">
          <mxGeometry x="224" y="1394" width="60" height="30" as="geometry" />
        </mxCell>
        <mxCell id="MqeZe2jEh2oXcdcuC_fv-6" value="ไม่ใช่" style="text;html=1;align=center;verticalAlign=middle;whiteSpace=wrap;rounded=0;" vertex="1" parent="WIyWlLk6GJQsqaUBKTNV-1">
          <mxGeometry x="447" y="806" width="60" height="30" as="geometry" />
        </mxCell>
        <mxCell id="MqeZe2jEh2oXcdcuC_fv-7" value="ไม่ใช่" style="text;html=1;align=center;verticalAlign=middle;whiteSpace=wrap;rounded=0;" vertex="1" parent="WIyWlLk6GJQsqaUBKTNV-1">
          <mxGeometry x="447" y="931" width="60" height="30" as="geometry" />
        </mxCell>
        <mxCell id="MqeZe2jEh2oXcdcuC_fv-8" value="ไม่ใช่" style="text;html=1;align=center;verticalAlign=middle;whiteSpace=wrap;rounded=0;" vertex="1" parent="WIyWlLk6GJQsqaUBKTNV-1">
          <mxGeometry x="447" y="1066" width="60" height="30" as="geometry" />
        </mxCell>
        <mxCell id="MqeZe2jEh2oXcdcuC_fv-9" value="ไม่ใช่" style="text;html=1;align=center;verticalAlign=middle;whiteSpace=wrap;rounded=0;" vertex="1" parent="WIyWlLk6GJQsqaUBKTNV-1">
          <mxGeometry x="447" y="1188" width="60" height="30" as="geometry" />
        </mxCell>
        <mxCell id="MqeZe2jEh2oXcdcuC_fv-10" value="ไม่ใช่" style="text;html=1;align=center;verticalAlign=middle;whiteSpace=wrap;rounded=0;" vertex="1" parent="WIyWlLk6GJQsqaUBKTNV-1">
          <mxGeometry x="445" y="1310" width="60" height="30" as="geometry" />
        </mxCell>
        <mxCell id="MqeZe2jEh2oXcdcuC_fv-16" value="" style="edgeStyle=orthogonalEdgeStyle;rounded=0;orthogonalLoop=1;jettySize=auto;html=1;" edge="1" parent="WIyWlLk6GJQsqaUBKTNV-1" source="MqeZe2jEh2oXcdcuC_fv-11" target="MqeZe2jEh2oXcdcuC_fv-14">
          <mxGeometry relative="1" as="geometry" />
        </mxCell>
        <mxCell id="MqeZe2jEh2oXcdcuC_fv-19" style="edgeStyle=orthogonalEdgeStyle;rounded=0;orthogonalLoop=1;jettySize=auto;html=1;entryX=1;entryY=0.5;entryDx=0;entryDy=0;" edge="1" parent="WIyWlLk6GJQsqaUBKTNV-1" source="MqeZe2jEh2oXcdcuC_fv-11" target="MqeZe2jEh2oXcdcuC_fv-24">
          <mxGeometry relative="1" as="geometry">
            <mxPoint x="675" y="125" as="targetPoint" />
            <Array as="points">
              <mxPoint x="605" y="292" />
              <mxPoint x="605" y="190" />
            </Array>
          </mxGeometry>
        </mxCell>
        <mxCell id="MqeZe2jEh2oXcdcuC_fv-11" value="Sales Manager ตรวจเช็คและให้ผ่าน" style="rhombus;whiteSpace=wrap;html=1;" vertex="1" parent="WIyWlLk6GJQsqaUBKTNV-1">
          <mxGeometry x="118.5" y="252" width="223" height="80" as="geometry" />
        </mxCell>
        <mxCell id="MqeZe2jEh2oXcdcuC_fv-17" value="" style="edgeStyle=orthogonalEdgeStyle;rounded=0;orthogonalLoop=1;jettySize=auto;html=1;" edge="1" parent="WIyWlLk6GJQsqaUBKTNV-1" source="MqeZe2jEh2oXcdcuC_fv-14" target="ul0n_eh6_xzhWPqqEAVD-11">
          <mxGeometry relative="1" as="geometry" />
        </mxCell>
        <mxCell id="MqeZe2jEh2oXcdcuC_fv-18" style="edgeStyle=orthogonalEdgeStyle;rounded=0;orthogonalLoop=1;jettySize=auto;html=1;" edge="1" parent="WIyWlLk6GJQsqaUBKTNV-1" source="MqeZe2jEh2oXcdcuC_fv-14">
          <mxGeometry relative="1" as="geometry">
            <mxPoint x="533" y="192" as="targetPoint" />
            <Array as="points">
              <mxPoint x="605" y="401" />
              <mxPoint x="605" y="190" />
              <mxPoint x="533" y="190" />
            </Array>
          </mxGeometry>
        </mxCell>
        <mxCell id="MqeZe2jEh2oXcdcuC_fv-14" value="Marketing Manager ตรวจเช็คและให้ผ่าน" style="rhombus;whiteSpace=wrap;html=1;" vertex="1" parent="WIyWlLk6GJQsqaUBKTNV-1">
          <mxGeometry x="99.75" y="361" width="260.5" height="80" as="geometry" />
        </mxCell>
        <mxCell id="MqeZe2jEh2oXcdcuC_fv-20" value="ใช่" style="text;html=1;align=center;verticalAlign=middle;whiteSpace=wrap;rounded=0;" vertex="1" parent="WIyWlLk6GJQsqaUBKTNV-1">
          <mxGeometry x="226" y="332" width="60" height="30" as="geometry" />
        </mxCell>
        <mxCell id="MqeZe2jEh2oXcdcuC_fv-21" value="ใช่" style="text;html=1;align=center;verticalAlign=middle;whiteSpace=wrap;rounded=0;" vertex="1" parent="WIyWlLk6GJQsqaUBKTNV-1">
          <mxGeometry x="222" y="443" width="60" height="30" as="geometry" />
        </mxCell>
        <mxCell id="MqeZe2jEh2oXcdcuC_fv-22" value="ไม่ใช่" style="text;html=1;align=center;verticalAlign=middle;whiteSpace=wrap;rounded=0;" vertex="1" parent="WIyWlLk6GJQsqaUBKTNV-1">
          <mxGeometry x="365" y="262" width="60" height="30" as="geometry" />
        </mxCell>
        <mxCell id="MqeZe2jEh2oXcdcuC_fv-23" value="ไม่ใช่" style="text;html=1;align=center;verticalAlign=middle;whiteSpace=wrap;rounded=0;" vertex="1" parent="WIyWlLk6GJQsqaUBKTNV-1">
          <mxGeometry x="369" y="372" width="60" height="30" as="geometry" />
        </mxCell>
        <mxCell id="MqeZe2jEh2oXcdcuC_fv-25" style="edgeStyle=orthogonalEdgeStyle;rounded=0;orthogonalLoop=1;jettySize=auto;html=1;entryX=1;entryY=0.5;entryDx=0;entryDy=0;" edge="1" parent="WIyWlLk6GJQsqaUBKTNV-1" source="MqeZe2jEh2oXcdcuC_fv-24" target="ul0n_eh6_xzhWPqqEAVD-4">
          <mxGeometry relative="1" as="geometry" />
        </mxCell>
        <mxCell id="MqeZe2jEh2oXcdcuC_fv-24" value="Sales ตรวจสอบและแก้ไข" style="rounded=0;whiteSpace=wrap;html=1;" vertex="1" parent="WIyWlLk6GJQsqaUBKTNV-1">
          <mxGeometry x="392" y="160" width="138" height="60" as="geometry" />
        </mxCell>
      </root>
    </mxGraphModel>
  </diagram>
</mxfile>
